<svg xmlns="http://www.w3.org/2000/svg" viewBox="0 0 1200 630" width="1200" height="630">
  <defs>
    <linearGradient id="bg" x1="0%" y1="0%" x2="100%" y2="100%">
      <stop offset="0%" stop-color="#0a0a0f"/>
      <stop offset="100%" stop-color="#12121a"/>
    </linearGradient>
  </defs>
  <rect width="1200" height="630" fill="url(#bg)"/>
  <!-- Capitol dome simplified silhouette -->
  <g transform="translate(160, 280)" opacity="0.15" stroke="#fbbf24" stroke-width="1.5" fill="none">
    <path d="M0,120 L0,60 L20,60 L20,40 L40,40 L40,20 Q80,-20 120,20 L120,40 L140,40 L140,60 L160,60 L160,120" />
    <line x1="0" y1="120" x2="160" y2="120"/>
    <!-- Data signal lines radiating -->
    <line x1="80" y1="-10" x2="80" y2="-60" stroke-dasharray="4,4"/>
    <line x1="80" y1="-60" x2="40" y2="-90" stroke-dasharray="4,4"/>
    <line x1="80" y1="-60" x2="120" y2="-90" stroke-dasharray="4,4"/>
    <circle cx="40" cy="-90" r="4"/>
    <circle cx="120" cy="-90" r="4"/>
    <circle cx="80" cy="-60" r="4"/>
  </g>
  <!-- Horizontal data lines -->
  <g opacity="0.08" stroke="#fbbf24" stroke-width="1">
    <line x1="380" y1="180" x2="1100" y2="180"/>
    <line x1="380" y1="220" x2="1050" y2="220"/>
    <line x1="380" y1="260" x2="1080" y2="260"/>
    <line x1="380" y1="440" x2="1000" y2="440"/>
    <line x1="380" y1="480" x2="1060" y2="480"/>
  </g>
  <text font-family="system-ui, -apple-system, sans-serif" fill="#e8e8ed" text-anchor="start">
    <tspan x="400" y="330" font-size="22" fill="#fbbf24" opacity="0.7">THE INFERENCE #6</tspan>
    <tspan x="400" y="380" font-size="44" font-weight="700">The Oklahoma</tspan>
    <tspan x="400" y="430" font-size="44" font-weight="700">AI Session</tspan>
  </text>
  <text x="400" y="520" font-family="system-ui, -apple-system, sans-serif" font-size="18" fill="#9898a8">HUMANITY &amp; AI — POLICY INTELLIGENCE</text>
</svg>