<svg xmlns="http://www.w3.org/2000/svg" viewBox="0 0 64 64">
  <defs><clipPath id="c"><circle cx="32" cy="32" r="30"/></clipPath></defs>
  <circle cx="32" cy="32" r="32" fill="#0a0a0f"/>
  <g clip-path="url(#c)">
    <path d="M 47.2 30.7 L 47.2 30.6 L 47.2 30.5 L 47.3 30.5 L 47.3 30.4 L 47.3 30.3 L 47.3 30.2 L 47.3 30.1 L 47.3 30.0 L 47.3 30.0 L 47.3 29.9 L 47.3 29.8 L 47.3 29.7 L 47.3 29.6 L 47.3 29.5 L 47.3 29.4 L 47.2 29.3 L 47.2 29.3 L 47.2 29.2 L 47.2 29.1 L 47.1 29.0 L 47.1 28.9 L 47.0 28.8 L 47.0 28.7 L 47.0 28.6 L 46.9 28.5 L 46.8 28.5 L 46.8 28.4 L 46.7 28.3 L 46.7 28.2 L 46.6 28.1 L 46.5 28.0 L 46.5 28.0 L 46.4 27.9 L 46.3 27.8 L 46.2 27.7 L 46.1 27.7 L 46.0 27.6 L 45.9 27.5 L 45.8 27.5 L 45.7 27.4 L 45.6 27.4 L 45.5 27.3 L 45.4 27.2 L 45.3 27.2 L 45.2 27.2 L 45.1 27.1 L 45.0 27.1 L 44.8 27.0 L 44.7 27.0 L 44.6 27.0 L 44.5 27.0 L 44.3 26.9 L 44.2 26.9 L 44.1 26.9 L 43.9 26.9 L 43.8 26.9 L 43.6 26.9 L 43.5 26.9 L 43.4 26.9 L 43.2 27.0 L 43.1 27.0 L 42.9 27.0 L 42.8 27.0 L 42.6 27.1 L 42.5 27.1 L 42.3 27.2 L 42.2 27.2 L 42.1 27.3 L 41.9 27.3 L 41.8 27.4 L 41.6 27.5 L 41.5 27.6 L 41.3 27.7 L 41.2 27.8 L 41.1 27.9 L 40.9 28.0 L 40.8 28.1 L 40.7 28.2 L 40.5 28.3 L 40.4 28.4 L 40.3 28.6 L 40.2 28.7 L 40.1 28.8 L 40.0 29.0 L 39.9 29.1 L 39.8 29.3 L 39.7 29.5 L 39.6 29.6 L 39.5 29.8 L 39.4 30.0 L 39.3 30.2 L 39.2 30.4 L 39.2 30.5 L 39.1 30.7 L 39.1 30.9 L 39.0 31.1 L 39.0 31.3 L 38.9 31.6 L 38.9 31.8 L 38.9 32.0 L 38.9 32.2 L 38.8 32.4 L 38.8 32.7 L 38.9 32.9 L 38.9 33.1 L 38.9 33.3 L 38.9 33.6 L 39.0 33.8 L 39.0 34.0 L 39.1 34.3 L 39.1 34.5 L 39.2 34.7 L 39.3 35.0 L 39.4 35.2 L 39.5 35.4 L 39.6 35.7 L 39.7 35.9 L 39.8 36.1 L 39.9 36.4 L 40.1 36.6 L 40.2 36.8 L 40.4 37.0 L 40.6 37.2 L 40.8 37.5 L 40.9 37.7 L 41.1 37.9 L 41.3 38.1 L 41.6 38.3 L 41.8 38.5 L 42.0 38.6 L 42.3 38.8 L 42.5 39.0 L 42.8 39.2 L 43.0 39.3 L 43.3 39.5 L 43.6 39.6 L 43.9 39.7 L 44.2 39.9 L 44.5 40.0 L 44.8 40.1 L 45.1 40.2 L 45.4 40.3 L 45.7 40.4 L 46.1 40.4 L 46.4 40.5 L 46.8 40.5 L 47.1 40.6 L 47.5 40.6 L 47.8 40.6 L 48.2 40.6 L 48.6 40.6 L 48.9 40.6 L 49.3 40.5 L 49.7 40.5 L 50.0 40.4 L 50.4 40.3 L 50.8 40.2 L 51.2 40.1 L 51.6 40.0 L 51.9 39.9 L 52.3 39.7 L 52.7 39.6 L 53.1 39.4 L 53.5 39.2 L 53.8 39.0 L 54.2 38.8 L 54.6 38.6 L 54.9 38.3 L 55.3 38.0 L 55.6 37.8 L 56.0 37.5 L 56.3 37.2 L 56.6 36.9 L 57.0 36.5 L 57.3 36.2 L 57.6 35.8 L 57.9 35.4 L 58.2 35.0 L 58.4 34.6 L 58.7 34.2 L 59.0 33.8 L 59.2 33.3 L 59.4 32.9 L 59.6 32.4 L 59.8 31.9 L 60.0 31.4 L 60.2 30.9 L 60.4 30.4 L 60.5 29.9 L 60.6 29.4 L 60.7 28.8 L 60.8 28.3 L 60.9 27.7 L 60.9 27.2 L 61.0 26.6 L 61.0 26.0 L 61.0 25.4 L 61.0 24.8 L 60.9 24.2 L 60.9 23.6 L 60.8 23.0 L 60.7 22.4 L 60.6 21.8 L 60.4 21.2 L 60.2 20.6 L 60.0 19.9 L 59.8 19.3 L 59.6 18.7 L 59.3 18.1 L 59.0 17.5 L 58.7 16.9 L 58.4 16.3 L 58.0 15.7 L 57.6 15.1 L 57.2 14.5 L 56.8 13.9 L 56.4 13.4 L 55.9 12.8 L 55.4 12.3 L 54.9 11.8 L 54.3 11.2 L 53.8 10.7 L 53.2 10.2 L 52.6 9.8 L 51.9 9.3 L 51.3 8.9 L 50.6 8.4 L 49.9 8.0 L 49.2 7.6 L 48.4 7.3 L 47.7 6.9 L 46.9 6.6 L 46.1 6.3 L 45.3 6.0 L 44.4 5.8 L 43.6 5.5 L 42.7 5.3 L 41.9 5.2 L 41.0 5.0 L 40.1 4.9 L 39.1 4.8 L 38.2 4.8 L 37.3 4.8 L 36.3 4.8 L 35.3 4.8 L 34.4 4.9 L 33.4 5.0 L 32.4 5.1 L 31.4 5.3 L 30.4 5.5 L 29.4 5.8 L 28.4 6.0 L 27.4 6.4 L 26.5 6.7 L 25.5 7.1 L 24.5 7.5 L 23.5 8.0 L 22.5 8.5 L 21.5 9.1 L 20.6 9.6 L 19.6 10.3 L 18.7 10.9 L 17.8 11.6 L 16.9 12.3 L 16.0 13.1 L 15.1 13.9 L 14.2 14.8 L 13.4 15.7 L 12.6 16.6 L 11.8 17.5 L 11.0 18.5 L 10.3 19.6 L 9.5 20.6 L 8.9 21.7 L 8.2 22.9 L 7.6 24.0 L 7.0 25.2 L 6.4 26.5 L 5.9 27.7 L 5.4 29.0 L 5.0 30.4 L 4.6 31.7 L 4.2 33.1 L 3.9 34.5 L 3.7 35.9 L 3.4 37.4 L 3.2 38.8 L 3.1 40.3 L 3.0 41.8 L 3.0 43.4 L 3.0 44.9 L 3.1 46.5 L 3.2 48.0 L 3.4 49.6 L 3.6 51.2 L 3.9 52.8 L 4.3 54.4 L 4.7 56.0 L 5.1 57.6 L 5.7 59.2" fill="none" stroke="#6a422c" stroke-width="5" stroke-linecap="round"/>
    <path d="M 47.2 30.7 L 47.2 30.6 L 47.2 30.5 L 47.3 30.5 L 47.3 30.4 L 47.3 30.3 L 47.3 30.2 L 47.3 30.1 L 47.3 30.0 L 47.3 30.0 L 47.3 29.9 L 47.3 29.8 L 47.3 29.7 L 47.3 29.6 L 47.3 29.5 L 47.3 29.4 L 47.2 29.3 L 47.2 29.3 L 47.2 29.2 L 47.2 29.1 L 47.1 29.0 L 47.1 28.9 L 47.0 28.8 L 47.0 28.7 L 47.0 28.6 L 46.9 28.5 L 46.8 28.5 L 46.8 28.4 L 46.7 28.3 L 46.7 28.2 L 46.6 28.1 L 46.5 28.0 L 46.5 28.0 L 46.4 27.9 L 46.3 27.8 L 46.2 27.7 L 46.1 27.7 L 46.0 27.6 L 45.9 27.5 L 45.8 27.5 L 45.7 27.4 L 45.6 27.4 L 45.5 27.3 L 45.4 27.2 L 45.3 27.2 L 45.2 27.2 L 45.1 27.1 L 45.0 27.1 L 44.8 27.0 L 44.7 27.0 L 44.6 27.0 L 44.5 27.0 L 44.3 26.9 L 44.2 26.9 L 44.1 26.9 L 43.9 26.9 L 43.8 26.9 L 43.6 26.9 L 43.5 26.9 L 43.4 26.9 L 43.2 27.0 L 43.1 27.0 L 42.9 27.0 L 42.8 27.0 L 42.6 27.1 L 42.5 27.1 L 42.3 27.2 L 42.2 27.2 L 42.1 27.3 L 41.9 27.3 L 41.8 27.4 L 41.6 27.5 L 41.5 27.6 L 41.3 27.7 L 41.2 27.8 L 41.1 27.9 L 40.9 28.0 L 40.8 28.1 L 40.7 28.2 L 40.5 28.3 L 40.4 28.4 L 40.3 28.6 L 40.2 28.7 L 40.1 28.8 L 40.0 29.0 L 39.9 29.1 L 39.8 29.3 L 39.7 29.5 L 39.6 29.6 L 39.5 29.8 L 39.4 30.0 L 39.3 30.2 L 39.2 30.4 L 39.2 30.5 L 39.1 30.7 L 39.1 30.9 L 39.0 31.1 L 39.0 31.3 L 38.9 31.6 L 38.9 31.8 L 38.9 32.0 L 38.9 32.2 L 38.8 32.4 L 38.8 32.7 L 38.9 32.9 L 38.9 33.1 L 38.9 33.3 L 38.9 33.6 L 39.0 33.8 L 39.0 34.0 L 39.1 34.3 L 39.1 34.5 L 39.2 34.7 L 39.3 35.0 L 39.4 35.2 L 39.5 35.4 L 39.6 35.7 L 39.7 35.9 L 39.8 36.1 L 39.9 36.4 L 40.1 36.6 L 40.2 36.8 L 40.4 37.0 L 40.6 37.2 L 40.8 37.5 L 40.9 37.7 L 41.1 37.9 L 41.3 38.1 L 41.6 38.3 L 41.8 38.5 L 42.0 38.6 L 42.3 38.8 L 42.5 39.0 L 42.8 39.2 L 43.0 39.3 L 43.3 39.5 L 43.6 39.6 L 43.9 39.7 L 44.2 39.9 L 44.5 40.0 L 44.8 40.1 L 45.1 40.2 L 45.4 40.3 L 45.7 40.4 L 46.1 40.4 L 46.4 40.5 L 46.8 40.5 L 47.1 40.6 L 47.5 40.6 L 47.8 40.6 L 48.2 40.6 L 48.6 40.6 L 48.9 40.6 L 49.3 40.5 L 49.7 40.5 L 50.0 40.4 L 50.4 40.3 L 50.8 40.2 L 51.2 40.1 L 51.6 40.0 L 51.9 39.9 L 52.3 39.7 L 52.7 39.6 L 53.1 39.4 L 53.5 39.2 L 53.8 39.0 L 54.2 38.8 L 54.6 38.6 L 54.9 38.3 L 55.3 38.0 L 55.6 37.8 L 56.0 37.5 L 56.3 37.2 L 56.6 36.9 L 57.0 36.5 L 57.3 36.2 L 57.6 35.8 L 57.9 35.4 L 58.2 35.0 L 58.4 34.6 L 58.7 34.2 L 59.0 33.8 L 59.2 33.3 L 59.4 32.9 L 59.6 32.4 L 59.8 31.9 L 60.0 31.4 L 60.2 30.9 L 60.4 30.4 L 60.5 29.9 L 60.6 29.4 L 60.7 28.8 L 60.8 28.3 L 60.9 27.7 L 60.9 27.2 L 61.0 26.6 L 61.0 26.0 L 61.0 25.4 L 61.0 24.8 L 60.9 24.2 L 60.9 23.6 L 60.8 23.0 L 60.7 22.4 L 60.6 21.8 L 60.4 21.2 L 60.2 20.6 L 60.0 19.9 L 59.8 19.3 L 59.6 18.7 L 59.3 18.1 L 59.0 17.5 L 58.7 16.9 L 58.4 16.3 L 58.0 15.7 L 57.6 15.1 L 57.2 14.5 L 56.8 13.9 L 56.4 13.4 L 55.9 12.8 L 55.4 12.3 L 54.9 11.8 L 54.3 11.2 L 53.8 10.7 L 53.2 10.2 L 52.6 9.8 L 51.9 9.3 L 51.3 8.9 L 50.6 8.4 L 49.9 8.0 L 49.2 7.6 L 48.4 7.3 L 47.7 6.9 L 46.9 6.6 L 46.1 6.3 L 45.3 6.0 L 44.4 5.8 L 43.6 5.5 L 42.7 5.3 L 41.9 5.2 L 41.0 5.0 L 40.1 4.9 L 39.1 4.8 L 38.2 4.8 L 37.3 4.8 L 36.3 4.8 L 35.3 4.8 L 34.4 4.9 L 33.4 5.0 L 32.4 5.1 L 31.4 5.3 L 30.4 5.5 L 29.4 5.8 L 28.4 6.0 L 27.4 6.4 L 26.5 6.7 L 25.5 7.1 L 24.5 7.5 L 23.5 8.0 L 22.5 8.5 L 21.5 9.1 L 20.6 9.6 L 19.6 10.3 L 18.7 10.9 L 17.8 11.6 L 16.9 12.3 L 16.0 13.1 L 15.1 13.9 L 14.2 14.8 L 13.4 15.7 L 12.6 16.6 L 11.8 17.5 L 11.0 18.5 L 10.3 19.6 L 9.5 20.6 L 8.9 21.7 L 8.2 22.9 L 7.6 24.0 L 7.0 25.2 L 6.4 26.5 L 5.9 27.7 L 5.4 29.0 L 5.0 30.4 L 4.6 31.7 L 4.2 33.1 L 3.9 34.5 L 3.7 35.9 L 3.4 37.4 L 3.2 38.8 L 3.1 40.3 L 3.0 41.8 L 3.0 43.4 L 3.0 44.9 L 3.1 46.5 L 3.2 48.0 L 3.4 49.6 L 3.6 51.2 L 3.9 52.8 L 4.3 54.4 L 4.7 56.0 L 5.1 57.6 L 5.7 59.2" fill="none" stroke="#ff6b35" stroke-width="1.4" stroke-linecap="round" stroke-dasharray="2 1.5 5 1.5 2 3" opacity="0.9"/>
  </g>
</svg>